<svg xmlns="http://www.w3.org/2000/svg" viewBox="0 0 32 32" role="img" aria-labelledby="title desc">
  <title>Hugging Face</title>
  <desc>Hugging Face profile icon</desc>
  <circle cx="16" cy="16" r="12.5" fill="#ffcc4d"/>
  <circle cx="11.5" cy="13.5" r="1.7" fill="#1f2328"/>
  <circle cx="20.5" cy="13.5" r="1.7" fill="#1f2328"/>
  <path d="M11 18.1c1.2 2 2.8 3 5 3s3.8-1 5-3" fill="none" stroke="#1f2328" stroke-width="1.8" stroke-linecap="round"/>
  <path d="M4.7 12.1c2.8-1 5.2.1 6 2.5.8 2.2-.3 4.4-2.6 5.2" fill="#ffcc4d" stroke="#1f2328" stroke-width="1.6" stroke-linecap="round"/>
  <path d="M27.3 12.1c-2.8-1-5.2.1-6 2.5-.8 2.2.3 4.4 2.6 5.2" fill="#ffcc4d" stroke="#1f2328" stroke-width="1.6" stroke-linecap="round"/>
  <path d="M5.3 13.4l-2.2-1.1M6.5 16.1l-2.5.2M26.7 13.4l2.2-1.1M25.5 16.1l2.5.2" fill="none" stroke="#1f2328" stroke-width="1.5" stroke-linecap="round"/>
</svg>
